<svg xmlns="http://www.w3.org/2000/svg" viewBox="0 0 100 100" width="100" height="100">
  <!-- Background Circle -->
  <circle cx="50" cy="50" r="48" fill="none" stroke="#4CAF50" stroke-width="4"/>
  
  <!-- Blockchain Nodes -->
  <circle cx="30" cy="30" r="5" fill="#4CAF50"/>
  <circle cx="50" cy="30" r="5" fill="#4CAF50"/>
  <circle cx="70" cy="30" r="5" fill="#4CAF50"/>
  <circle cx="30" cy="50" r="5" fill="#4CAF50"/>
  <circle cx="70" cy="50" r="5" fill="#4CAF50"/>
  <circle cx="30" cy="70" r="5" fill="#4CAF50"/>
  <circle cx="50" cy="70" r="5" fill="#4CAF50"/>
  <circle cx="70" cy="70" r="5" fill="#4CAF50"/>

  <!-- Connecting Lines -->
  <line x1="30" y1="30" x2="50" y2="30" stroke="#4CAF50" stroke-width="2"/>
  <line x1="50" y1="30" x2="70" y2="30" stroke="#4CAF50" stroke-width="2"/>
  <line x1="30" y1="30" x2="30" y2="50" stroke="#4CAF50" stroke-width="2"/>
  <line x1="70" y1="30" x2="70" y2="50" stroke="#4CAF50" stroke-width="2"/>
  <line x1="30" y1="50" x2="50" y2="50" stroke="#4CAF50" stroke-width="2"/>
  <line x1="50" y1="50" x2="70" y2="50" stroke="#4CAF50" stroke-width="2"/>
  <line x1="30" y1="50" x2="30" y2="70" stroke="#4CAF50" stroke-width="2"/>
  <line x1="70" y1="50" x2="70" y2="70" stroke="#4CAF50" stroke-width="2"/>
  <line x1="30" y1="70" x2="50" y2="70" stroke="#4CAF50" stroke-width="2"/>
  <line x1="50" y1="70" x2="70" y2="70" stroke="#4CAF50" stroke-width="2"/>
</svg>
